<svg width="19" height="18" viewBox="0 0 19 18" fill="none" xmlns="http://www.w3.org/2000/svg">
<path d="M4.5 7.66667V11.5C4.5 12.6046 5.39543 13.5 6.5 13.5H12.5C13.6046 13.5 14.5 12.6046 14.5 11.5V7.66667M4.5 7.66667V7.16667C4.5 6.0621 5.39543 5.16667 6.5 5.16667H7M4.5 7.66667H14.5M14.5 7.66667V7.16667C14.5 6.0621 13.6046 5.16667 12.5 5.16667H12M7 3.5V5.16667M7 5.16667H12M12 5.16667V3.5M11.3667 11.8333H12.6333C12.7438 11.8333 12.8333 11.7438 12.8333 11.6333V10.3667C12.8333 10.2562 12.7438 10.1667 12.6333 10.1667H11.3667C11.2562 10.1667 11.1667 10.2562 11.1667 10.3667V11.6333C11.1667 11.7438 11.2562 11.8333 11.3667 11.8333Z" stroke="#777777" stroke-width="0.8" stroke-linecap="round"/>
</svg>
