<svg width="80" height="80" viewBox="0 0 80 80" fill="none" xmlns="http://www.w3.org/2000/svg">
<path d="M40 15C53.8071 15 65 26.1929 65 40C65 53.8071 53.8071 65 40 65C26.1929 65 15 53.8071 15 40C15 26.1929 26.1929 15 40 15ZM40.001 53C38.8964 53 38.001 53.8954 38.001 55C38.001 56.1046 38.8964 57 40.001 57C41.1053 56.9997 42.001 56.1044 42.001 55C42.001 53.8956 41.1053 53.0003 40.001 53ZM40.001 23C37.8433 23 36.1421 24.8369 36.3076 26.9883L37.8477 47.0059C37.9342 48.1311 38.8724 49 40.001 49C41.1293 48.9997 42.0678 48.1309 42.1543 47.0059L43.6943 26.9883C43.8598 24.8372 42.1584 23.0003 40.001 23Z" fill="#D9D9D9"/>
</svg>
