<svg width="24" height="24" viewBox="0 0 24 24" fill="none" xmlns="http://www.w3.org/2000/svg">
<path d="M6.75791 7.30715C7.76842 7.98887 12.2684 8.48887 12.2684 8.48887C12.2684 8.48887 10.2684 5.98887 9.30123 4.94371C8.33402 3.89856 7.76843 3.48887 6.75791 4.94371C5.74738 6.39855 5.74739 6.62543 6.75791 7.30715Z" stroke="#101010"/>
<path d="M16.5106 7.30715C15.5001 7.98887 11.0001 8.48887 11.0001 8.48887C11.0001 8.48887 13.0001 5.98887 13.9673 4.94371C14.9345 3.89856 15.5001 3.48887 16.5106 4.94371C17.5212 6.39855 17.5212 6.62543 16.5106 7.30715Z" stroke="#101010"/>
<path d="M5 10.5H11C11.2761 10.5 11.5 10.7239 11.5 11V19.5H5C4.72386 19.5 4.5 19.2761 4.5 19V11C4.5 10.7239 4.72386 10.5 5 10.5Z" fill="white" stroke="#101010"/>
<rect x="2.5" y="7.5" width="9" height="3" rx="0.5" fill="white" stroke="#101010"/>
<rect x="11.5" y="7.5" width="9" height="3" rx="0.5" fill="white" stroke="#101010"/>
<path d="M12 10.5H18C18.2761 10.5 18.5 10.7239 18.5 11V19C18.5 19.2761 18.2761 19.5 18 19.5H11.5V11L11.5098 10.8994C11.5563 10.6714 11.7583 10.5 12 10.5Z" fill="white" stroke="#101010"/>
</svg>
