<svg width="24" height="24" viewBox="0 0 24 24" fill="none" xmlns="http://www.w3.org/2000/svg">
<path d="M7.97024 12.113L6.71567 6.58128H16.94C18.2426 6.58128 19.1976 7.80679 18.8793 9.06999L18.1008 12.1593C17.8769 13.0479 17.0778 13.6706 16.1615 13.6706H9.92071C8.98657 13.6706 8.17685 13.024 7.97024 12.113Z" fill="white"/>
<path d="M6.71567 6.58128L6.40856 5.25688C6.21151 4.4071 5.2259 4.01623 4.5 4.5V4.5M6.71567 6.58128L7.97024 12.113C8.17685 13.024 8.98657 13.6706 9.92071 13.6706H16.1615C17.0778 13.6706 17.8769 13.0479 18.1008 12.1593L18.8793 9.06999C19.1976 7.80679 18.2426 6.58128 16.94 6.58128H6.71567Z" stroke="#101010" stroke-linecap="round"/>
<circle cx="10" cy="17" r="1.5" fill="white" stroke="#101010"/>
<path d="M16 15.5C16.8284 15.5 17.5 16.1716 17.5 17C17.5 17.8284 16.8284 18.5 16 18.5C15.1716 18.5 14.5 17.8284 14.5 17C14.5 16.1716 15.1716 15.5 16 15.5Z" fill="white" stroke="#101010"/>
</svg>
