<svg width="44" height="44" viewBox="0 0 44 44" fill="none" xmlns="http://www.w3.org/2000/svg">
<path d="M20.6709 14.0078C24.0232 14.1777 26.6895 16.9502 26.6895 20.3447L26.6807 20.6709C26.6075 22.1154 26.05 23.4316 25.1689 24.4629L25.1797 24.4717L29.9385 29.2305L30.002 29.3086C30.13 29.5025 30.109 29.7667 29.9385 29.9375C29.7677 30.1083 29.5036 30.1289 29.3096 30.001L29.2314 29.9375L24.4727 25.1787L24.4639 25.168C23.3554 26.1157 21.9174 26.6894 20.3447 26.6895L20.0176 26.6807C16.7736 26.516 14.1722 23.915 14.0078 20.6709L14 20.3447C14 16.8407 16.8407 14 20.3447 14L20.6709 14.0078ZM20.3447 15C17.393 15 15 17.393 15 20.3447C15.0001 23.2964 17.3931 25.6895 20.3447 25.6895C23.2963 25.6893 25.6894 23.2963 25.6895 20.3447C25.6895 17.3931 23.2963 15.0001 20.3447 15Z" fill="#111810"/>
</svg>
