<svg width="24" height="24" viewBox="0 0 24 24" fill="none" xmlns="http://www.w3.org/2000/svg">
<path d="M15.7559 12.5127C17.0165 12.6407 18 13.7056 18 15V17H17V15C17 14.2233 16.4098 13.5845 15.6533 13.5078L15.5 13.5H8.5C7.67176 13.5002 7.00005 14.1717 7 15V17H6V15C6.00008 13.6195 7.1195 12.5002 8.5 12.5H15.5L15.7559 12.5127ZM12.001 6C13.3815 6.00026 14.501 7.11945 14.501 8.5C14.501 9.88055 13.3815 10.9997 12.001 11C10.6203 11 9.50098 9.88071 9.50098 8.5C9.50098 7.11929 10.6203 6 12.001 6ZM12.001 7C11.1725 7 10.501 7.67157 10.501 8.5C10.501 9.32843 11.1725 10 12.001 10C12.8292 9.99974 13.501 9.32826 13.501 8.5C13.501 7.67174 12.8292 7.00026 12.001 7Z" fill="#AFAFAF"/>
</svg>
