<svg width="24" height="24" viewBox="0 0 24 24" fill="none" xmlns="http://www.w3.org/2000/svg">
<path d="M15.9382 13.5C17.0854 13.5 18.0858 14.2807 18.364 15.3936L18.9851 17.8789C19.0223 18.0281 18.9888 18.1864 18.8943 18.3076C18.7995 18.4288 18.6536 18.5 18.4998 18.5H4.49976C4.34595 18.4999 4.19989 18.4289 4.10522 18.3076C4.01083 18.1864 3.97724 18.028 4.0144 17.8789L4.6355 15.3936C4.91369 14.2808 5.91431 13.5002 7.06128 13.5H15.9382ZM7.06128 14.5C6.37333 14.5002 5.77326 14.9684 5.6062 15.6357L5.14038 17.5H17.8591L17.3933 15.6357C17.2262 14.9683 16.6263 14.5 15.9382 14.5H7.06128ZM11.4998 6C13.1566 6 14.4998 7.34315 14.4998 9C14.4998 10.6569 13.1566 12 11.4998 12C9.84311 11.9998 8.49976 10.6567 8.49976 9C8.49976 7.34329 9.84311 6.00024 11.4998 6ZM18.4998 9.5H19.9998V10.5H18.4998V12H17.4998V10.5H15.9998V9.5H17.4998V8H18.4998V9.5ZM11.4998 7C10.3954 7.00024 9.49976 7.89558 9.49976 9C9.49976 10.1044 10.3954 10.9998 11.4998 11C12.6043 11 13.4998 10.1046 13.4998 9C13.4998 7.89543 12.6043 7 11.4998 7Z" fill="#111810"/>
</svg>
