<svg width="26" height="24" viewBox="0 0 26 24" fill="none" xmlns="http://www.w3.org/2000/svg">
<path d="M12.5244 1.08203C12.6741 0.621374 13.3259 0.621378 13.4756 1.08203L15.668 7.82812C15.8688 8.44616 16.4449 8.86426 17.0947 8.86426H24.1885C24.6726 8.86452 24.8741 9.48486 24.4824 9.76953L18.7432 13.9385C18.2174 14.3204 17.9974 14.9982 18.1982 15.6162L20.3906 22.3623C20.5403 22.8229 20.0129 23.2062 19.6211 22.9219L13.8818 18.752C13.3561 18.37 12.6439 18.37 12.1182 18.752L6.37891 22.9219C5.98708 23.2062 5.45974 22.8228 5.60938 22.3623L7.80176 15.6162C8.00257 14.9982 7.78257 14.3204 7.25684 13.9385L1.51758 9.76953C1.12595 9.48486 1.32743 8.86452 1.81152 8.86426H8.90527C9.55511 8.86426 10.1312 8.44616 10.332 7.82812L12.5244 1.08203Z" stroke="#AFAFAF"/>
</svg>
