<svg width="24" height="24" viewBox="0 0 24 24" fill="none" xmlns="http://www.w3.org/2000/svg">
<path d="M11.6204 4.17082C11.7401 3.8023 12.2615 3.8023 12.3812 4.17082L14.1561 9.63344C14.2097 9.79825 14.3633 9.90983 14.5366 9.90983H20.2803C20.6678 9.90983 20.8289 10.4057 20.5154 10.6334L15.8686 14.0095C15.7284 14.1114 15.6698 14.2919 15.7233 14.4567L17.4982 19.9193C17.618 20.2879 17.1962 20.5943 16.8827 20.3666L12.2359 16.9905C12.0957 16.8886 11.9059 16.8886 11.7657 16.9905L7.11891 20.3666C6.80542 20.5943 6.38363 20.2879 6.50337 19.9193L8.27828 14.4567C8.33183 14.2919 8.27317 14.1114 8.13297 14.0095L3.48619 10.6334C3.17271 10.4057 3.33382 9.90983 3.72131 9.90983H9.46504C9.63833 9.90983 9.79191 9.79825 9.84546 9.63344L11.6204 4.17082Z" fill="#EA6770"/>
</svg>
